<svg width="284" height="284" viewBox="0 0 284 284" fill="none" xmlns="http://www.w3.org/2000/svg">
<rect x="0.892578" y="142.131" width="200" height="200" transform="rotate(-45 0.892578 142.131)" fill="#63FF9B"/>
<path d="M257.261 141.948L204.44 88.5711L216.349 75.9947L282.708 142.029L216.39 208.267L203.849 195.766L257.261 141.948Z" fill="#232230" stroke="#232230"/>
<path d="M223.015 140.695L195.062 112.448L201.364 105.792L236.483 140.738L201.386 175.792L194.749 169.177L223.015 140.695Z" fill="#232230" stroke="#232230"/>
<circle cx="142.316" cy="142.131" r="10" fill="#232230"/>
<path d="M142.359 203.414L155.896 190.018L159.086 193.039L142.339 209.868L125.54 193.049L128.71 189.868L142.359 203.414Z" fill="#232230" stroke="#232230"/>
<path d="M179.441 142.89L142.485 105.819L104.838 142.89L128.431 166.664L116.121 178.58L80.7762 143.005L142.485 81.2962L203.849 142.89L168.85 178.58L156.847 166.664L179.441 142.89Z" stroke="#232230" stroke-width="10"/>
<path d="M177.633 101.644L142.056 65.8531L66.0344 142.169L142.013 217.985L177.77 182.512L209.827 214.755L141.644 282.58L1.33984 142.276L142.257 1.68172L210.008 69.6243L177.633 101.644Z" fill="#232230" stroke="#232230"/>
<path d="M183.788 69.5252L140.663 26.5284L24.9961 142.002L140.727 257.733L183.724 214.736L176.258 207.592L140.727 243.315L39.6066 142.002L140.663 41.0752L176.579 76.7343L183.788 69.5252Z" fill="#63FF9B" stroke="#232230"/>
</svg>
