<svg width="744" height="552" viewBox="0 0 744 552" fill="none" xmlns="http://www.w3.org/2000/svg">
<path d="M664.01 510.834C662.172 470.173 654.783 429.953 642.05 391.294C642.05 391.294 642.06 391.284 642.05 391.284C639.27 382.814 636.223 374.414 632.91 366.084C631.67 362.954 630.393 359.834 629.08 356.724C618.791 332.349 606.362 308.934 591.94 286.754C586.82 278.854 581.443 271.121 575.81 263.554C562.602 245.812 548.117 229.057 532.47 213.424C526.08 207.034 519.533 200.864 512.83 194.914C511.86 194.044 510.89 193.184 509.91 192.344C485.811 171.268 459.521 152.839 431.49 137.374C431.09 137.134 430.7 136.924 430.3 136.714C424.59 133.574 418.81 130.567 412.96 127.694C412.36 127.394 411.77 127.094 411.17 126.814C406.16 124.364 401.1 122.014 395.99 119.764C395.18 119.394 394.36 119.034 393.54 118.684C393.52 118.674 393.51 118.664 393.49 118.664C392.05 118.034 390.61 117.414 389.17 116.804C388.79 116.644 388.41 116.484 388.03 116.324H388.02C336.208 94.5637 280.762 82.7546 224.58 81.514C220.96 81.424 217.33 81.3806 213.69 81.384H116.15C108.576 81.3781 101.036 82.3837 93.7296 84.374C93.5796 84.414 93.4396 84.4539 93.2896 84.494C75.3345 89.5113 59.5118 100.261 48.2321 115.104C36.9524 129.947 30.8342 148.071 30.8096 166.714V537.724C30.8086 539.737 31.2537 541.726 32.1131 543.547C32.9725 545.367 34.2246 546.975 35.7796 548.254C35.7996 548.274 35.8196 548.284 35.8296 548.294C38.2684 550.302 41.3304 551.398 44.4896 551.394H645.32C650.407 551.388 655.285 549.364 658.882 545.766C662.48 542.169 664.503 537.292 664.51 532.204C664.51 525.054 664.343 517.931 664.01 510.834Z" fill="#F2F2F2"/>
<path d="M440.878 454.746C440.927 488.084 433.294 520.986 418.572 550.898H44.4898C40.995 550.898 37.6433 549.51 35.1721 547.038C32.7008 544.567 31.3125 541.216 31.3125 537.721V350.637C88.7892 244.841 221.148 205.67 326.944 263.147C361.418 281.876 390.199 309.561 410.252 343.283C430.304 377.004 440.885 415.512 440.878 454.746V454.746Z" fill="#2F2E41"/>
<path d="M664.011 419.955V532.205C664.011 537.162 662.042 541.917 658.536 545.423C655.03 548.929 650.275 550.898 645.318 550.898H43.6618C40.1927 550.898 36.8657 549.52 34.4123 547.068C31.9589 544.615 30.5801 541.288 30.5791 537.819V537.686C30.5791 444.191 321.378 364.443 404.062 333.476C450.753 316.045 502.004 315.119 549.294 330.851C596.585 346.584 637.067 378.027 664.011 419.955L664.011 419.955Z" fill="#3F3D56"/>
<path d="M281.36 222.794C281.36 230.334 281.047 237.531 280.42 244.384C272.32 333.814 212.84 365.734 140.68 365.734C138.87 365.734 137.08 365.714 135.29 365.664C131.69 365.594 128.12 365.424 124.6 365.174C92.21 362.884 63.17 353.354 41.28 334.064C37.5426 330.766 34.0438 327.207 30.81 323.414C11.53 300.824 0 268.124 0 222.794C0 149.124 68 61.5239 109.45 14.9739C113.247 10.6941 117.884 7.24169 123.073 4.83142C128.261 2.42116 133.891 1.10466 139.61 0.963888H140.01C146.024 0.855198 151.99 2.05135 157.497 4.46997C163.004 6.88858 167.921 10.4722 171.91 14.9739C190.785 36.0777 208.374 58.2978 224.58 81.5139C254.69 125.064 281.36 176.664 281.36 222.794Z" fill="#63FF9B"/>
<path d="M135.55 349.524L187.01 277.624L135.42 357.414L135.29 365.664L134.14 436.414L133.72 462.364H119.51L120.49 443.624L124.6 365.174L130.15 259.184L130.1 258.354L130.2 258.204L130.24 257.354L130.72 248.194L79.0098 168.214L130.88 240.684L131 242.804L135.19 162.724L93.2898 84.494L90.9198 80.074L93.7298 84.374L135.74 148.654L136.36 124.744L137.5 81.384L139.61 0.963989H140.01L139.57 81.384L139.39 113.544L166.69 81.384L183.46 61.634L169.62 81.384L139.2 124.814L138.04 196.524L179.19 127.714L137.87 207.074L137.22 246.944L196.95 151.154L141.6 252.424L136.99 260.854L135.55 349.524Z" fill="#3F3D56"/>
<path d="M510.74 174.234C510.74 180.574 510.464 186.611 509.91 192.344C503.13 263.714 455.42 289.214 397.57 289.214C396.12 289.214 394.67 289.194 393.24 289.164C390.34 289.104 387.474 288.967 384.64 288.754C376.19 288.207 367.804 286.915 359.58 284.894C339.14 279.814 321.42 269.984 308.32 254.134C293.34 236.004 284.41 210.004 284.41 174.234C284.41 147.674 295.4 118.864 310.53 91.7839C327.05 62.2139 348.51 34.7139 365.98 14.4539C369.784 10.0283 374.477 6.45407 379.755 3.96428C385.033 1.47449 390.776 0.125017 396.61 0.00386129H397.01C403.102 -0.0925572 409.141 1.15188 414.699 3.64901C420.256 6.14614 425.197 9.83487 429.17 14.4539C462.65 53.2638 510.74 118.674 510.74 174.234Z" fill="#63FF9B"/>
<path d="M393.45 276.174L434.84 218.344L393.35 282.524L393.24 289.164L392.77 318.114L392.46 337.674L391.98 366.944H380.55L381.89 341.334L383.66 307.504L384.64 288.754L389.1 203.504L389.07 202.844L389.14 202.724L389.56 194.664L347.97 130.324L389.69 188.624L389.79 190.334L393.16 125.914L388.03 116.324H388.02L357.55 59.434L393.6 114.604L396.61 0.00402832H397.01L396.53 86.354L431.98 44.604L396.39 95.424L395.99 119.764L395.45 153.104L411.17 126.814L428.55 97.754L412.96 127.694L395.31 161.594L394.79 193.664L430.3 136.714L442.84 116.614L431.49 137.374L394.61 204.854L393.45 276.174Z" fill="#3F3D56"/>
<path d="M743.87 294.454C743.87 351.834 709.76 371.864 667.68 371.864C666.71 371.864 665.74 371.854 664.77 371.834C662.82 371.784 660.89 371.704 658.98 371.554C650.068 371.028 641.282 369.185 632.91 366.084C608.32 356.634 591.5 334.754 591.5 294.454C591.503 291.881 591.65 289.31 591.94 286.754C593.35 273.884 598.11 260.454 604.61 247.404C608.337 239.988 612.47 232.784 616.99 225.824C622.75 216.884 628.94 208.414 634.95 200.784C638.752 195.938 643.586 192.002 649.101 189.26C654.615 186.518 660.672 185.04 666.83 184.934C666.97 184.934 667.11 184.924 667.26 184.934C673.634 184.847 679.942 186.231 685.694 188.98C691.445 191.73 696.485 195.769 700.42 200.784C721.07 227.014 743.87 263.064 743.87 294.454Z" fill="#63FF9B"/>
<path d="M664.91 363.084L692.77 324.154L664.84 367.364L664.77 371.834L663.98 419.904L663.91 424.194H656.22L656.98 409.684L658.98 371.554L661.98 314.164L661.95 313.714L662 313.634L662.29 308.214L634.29 264.894L662.37 304.144L662.44 305.294L664.71 261.924L640.74 217.164L665.01 254.324L666.83 184.934C666.97 184.934 667.11 184.924 667.26 184.934L666.98 235.294L690.85 207.184L666.88 241.394L666.25 280.234L688.54 242.964L666.16 285.944L665.81 307.534L698.16 255.664L665.69 315.064L664.91 363.084Z" fill="#3F3D56"/>
<path d="M182.228 400.316C178.856 405.694 174.482 405.568 170.537 403.095C166.593 400.623 164.573 396.74 167.945 391.362C171.317 385.984 182.747 383.618 182.747 383.618C182.747 383.618 185.6 394.938 182.228 400.316Z" fill="#63FF9B"/>
<path d="M77.268 414.996C73.8963 420.374 69.5216 420.248 65.5775 417.775C61.6333 415.302 59.6132 411.42 62.9849 406.042C66.3566 400.663 77.7875 398.298 77.7875 398.298C77.7875 398.298 80.6397 409.617 77.268 414.996Z" fill="#63FF9B"/>
<path d="M449.358 389.123C449.982 395.441 446.445 398.017 441.812 398.475C437.18 398.932 433.206 397.098 432.582 390.78C431.958 384.463 439.553 375.598 439.553 375.598C439.553 375.598 448.734 382.806 449.358 389.123Z" fill="#63FF9B"/>
<path d="M328.291 310.769C324.92 316.148 320.545 316.021 316.601 313.549C312.657 311.076 310.637 307.194 314.008 301.815C317.38 296.437 328.811 294.072 328.811 294.072C328.811 294.072 331.663 305.391 328.291 310.769Z" fill="#63FF9B"/>
<path d="M607.207 393.71C603.836 399.088 599.461 398.962 595.517 396.489C591.573 394.017 589.553 390.134 592.924 384.756C596.296 379.378 607.727 377.012 607.727 377.012C607.727 377.012 610.579 388.332 607.207 393.71Z" fill="#63FF9B"/>
</svg>
