<svg width="564" height="283" viewBox="0 0 564 283" fill="none" xmlns="http://www.w3.org/2000/svg">
<path d="M563.101 15.7986H0.304688V282.855H563.101V15.7986Z" fill="#E6E6E6"/>
<path d="M547.009 38.6992H16.3984V261.513H547.009V38.6992Z" fill="white"/>
<path d="M562.861 0.369202H0.0654297V24.2784H562.861V0.369202Z" fill="#63FF9B"/>
<path d="M17.8329 15.8598C20.2803 15.8598 22.2643 13.8758 22.2643 11.4283C22.2643 8.98087 20.2803 6.99683 17.8329 6.99683C15.3854 6.99683 13.4014 8.98087 13.4014 11.4283C13.4014 13.8758 15.3854 15.8598 17.8329 15.8598Z" fill="white"/>
<path d="M34.6532 15.8598C37.1006 15.8598 39.0847 13.8758 39.0847 11.4283C39.0847 8.98087 37.1006 6.99683 34.6532 6.99683C32.2057 6.99683 30.2217 8.98087 30.2217 11.4283C30.2217 13.8758 32.2057 15.8598 34.6532 15.8598Z" fill="white"/>
<path d="M51.4745 15.8598C53.9219 15.8598 55.9059 13.8758 55.9059 11.4283C55.9059 8.98087 53.9219 6.99683 51.4745 6.99683C49.027 6.99683 47.043 8.98087 47.043 11.4283C47.043 13.8758 49.027 15.8598 51.4745 15.8598Z" fill="white"/>
<path d="M253.726 91.577C253.157 91.577 252.611 91.8032 252.208 92.2058C251.805 92.6085 251.579 93.1545 251.579 93.7239C251.579 94.2933 251.805 94.8394 252.208 95.242C252.611 95.6446 253.157 95.8708 253.726 95.8708H371.53C372.099 95.8708 372.645 95.6446 373.048 95.242C373.451 94.8394 373.677 94.2933 373.677 93.7239C373.677 93.1545 373.451 92.6085 373.048 92.2058C372.645 91.8032 372.099 91.577 371.53 91.577H253.726Z" fill="#E6E6E6"/>
<path d="M253.726 104.46C253.158 104.461 252.613 104.688 252.211 105.09C251.81 105.493 251.584 106.038 251.584 106.606C251.584 107.175 251.81 107.72 252.211 108.123C252.613 108.525 253.158 108.752 253.726 108.753H313.868C314.436 108.752 314.981 108.525 315.383 108.123C315.784 107.72 316.01 107.175 316.01 106.606C316.01 106.038 315.784 105.493 315.383 105.09C314.981 104.688 314.436 104.461 313.868 104.46H253.726Z" fill="#E6E6E6"/>
<path d="M250.762 166.813C250.193 166.813 249.647 167.039 249.244 167.442C248.841 167.844 248.615 168.39 248.615 168.96C248.615 169.529 248.841 170.075 249.244 170.478C249.647 170.88 250.193 171.107 250.762 171.107H471.645C472.214 171.107 472.761 170.88 473.163 170.478C473.566 170.075 473.792 169.529 473.792 168.96C473.792 168.39 473.566 167.844 473.163 167.442C472.761 167.039 472.214 166.813 471.645 166.813H250.762Z" fill="#E6E6E6"/>
<path d="M250.762 179.695C250.194 179.697 249.649 179.923 249.247 180.326C248.846 180.728 248.62 181.274 248.62 181.842C248.62 182.411 248.846 182.956 249.247 183.359C249.649 183.761 250.194 183.988 250.762 183.989H413.983C414.551 183.988 415.096 183.761 415.498 183.359C415.899 182.956 416.125 182.411 416.125 181.842C416.125 181.274 415.899 180.728 415.498 180.326C415.096 179.923 414.551 179.697 413.983 179.695H250.762Z" fill="#E6E6E6"/>
<path d="M250.762 192.286C250.194 192.288 249.649 192.514 249.247 192.917C248.846 193.319 248.62 193.865 248.62 194.433C248.62 195.002 248.846 195.547 249.247 195.95C249.649 196.352 250.194 196.579 250.762 196.58H471.645C472.214 196.579 472.759 196.352 473.16 195.95C473.562 195.547 473.788 195.002 473.788 194.433C473.788 193.865 473.562 193.319 473.16 192.917C472.759 192.514 472.214 192.288 471.645 192.286H250.762Z" fill="#E6E6E6"/>
<path d="M250.762 205.169C250.194 205.17 249.649 205.397 249.247 205.799C248.846 206.202 248.62 206.747 248.62 207.316C248.62 207.884 248.846 208.43 249.247 208.832C249.649 209.235 250.194 209.461 250.762 209.463H413.983C414.551 209.461 415.096 209.235 415.498 208.832C415.899 208.43 416.125 207.884 416.125 207.316C416.125 206.747 415.899 206.202 415.498 205.799C415.096 205.397 414.551 205.17 413.983 205.169H250.762Z" fill="#E6E6E6"/>
<path d="M135.283 175.526C145.608 175.526 153.977 167.156 153.977 156.831C153.977 146.507 145.608 138.137 135.283 138.137C124.959 138.137 116.589 146.507 116.589 156.831C116.589 167.156 124.959 175.526 135.283 175.526Z" fill="#A0616A"/>
<path d="M129.363 141.876C129.363 141.876 138.087 144.213 142.605 145.148C147.122 146.082 146.655 143.434 146.655 143.434C146.655 143.434 152.575 144.213 152.263 143.59C151.952 142.967 154.756 139.695 151.484 135.956C148.213 132.217 149.148 129.413 149.148 129.413H146.343L145.565 128.323H141.203C141.203 128.323 136.38 124.094 127.812 125.34C119.243 126.586 109.111 129.88 108.176 135.021C108.049 135.719 107.882 136.493 107.688 137.312C105.345 147.203 110.324 156.458 115.487 165.214C116.756 167.366 122.894 172.059 122.737 168.839C122.58 165.62 117.212 158.389 120.95 157.922C124.689 157.455 131.076 147.952 129.363 141.876Z" fill="#2F2E41"/>
<path d="M124.678 217.267C121.069 216.978 117.49 216.39 113.979 215.509L114.175 211.781L115.812 182.139L115.827 181.911H148.758L153.925 209.205L154.622 212.887C153.259 213.418 151.879 213.918 150.471 214.357C150.455 214.357 150.455 214.372 150.44 214.372C148.485 214.978 146.5 215.509 144.499 215.948C141.839 216.522 139.147 216.937 136.437 217.191C134.342 217.399 132.238 217.5 130.133 217.494C128.315 217.494 126.481 217.418 124.678 217.267Z" fill="#63FF9B"/>
<path d="M103.506 211.993C102.143 211.402 100.824 210.766 99.521 210.099L98.9601 209.811C98.5813 209.614 98.1876 209.402 97.8087 209.189C97.293 208.902 96.7928 208.614 96.3081 208.326C95.8382 208.053 95.3535 207.765 94.8837 207.477C94.8533 207.462 94.8386 207.447 94.8082 207.447C93.1714 206.401 91.565 205.325 90.0192 204.158C89.7617 203.961 89.504 203.764 89.246 203.567L88.9736 199.203L89.3673 198.96L115.812 182.139L116.175 181.911L116.206 181.896L119.934 181.911V195.793C122.04 198.839 123.465 205.219 124.344 213.569C124.465 214.766 124.571 215.994 124.678 217.267C121.069 216.978 117.49 216.39 113.978 215.509C113.6 215.433 113.236 215.342 112.857 215.236C110.648 214.658 108.473 213.96 106.341 213.145C105.689 212.902 105.052 212.645 104.416 212.387L104.355 212.357C104.082 212.236 103.78 212.114 103.506 211.993Z" fill="#2F2E41"/>
<path d="M97.8093 209.189C97.2935 208.902 96.7933 208.614 96.3087 208.326C95.8388 208.053 95.3541 207.765 94.8842 207.477C94.8539 207.462 94.8391 207.447 94.8088 207.447C93.172 206.401 91.5655 205.325 90.0198 204.158C89.7623 203.961 89.5045 203.764 89.2465 203.567C89.1259 203.461 89.0045 203.37 88.8676 203.264C87.8983 202.522 86.9585 201.749 86.0491 200.93C86.004 200.9 85.9736 200.855 85.9277 200.824C86.846 200.118 87.8757 199.57 88.9742 199.203L90.0501 199.521L97.7183 201.824L97.7635 204.931L97.8093 209.189Z" fill="#2F2E41"/>
<path d="M162.382 209.235C161.927 209.477 161.472 209.72 161.018 209.947C160.911 210.008 160.821 210.053 160.73 210.099C160.123 210.402 159.533 210.705 158.927 210.993C158.911 211.008 158.881 211.008 158.881 211.023C158.851 211.038 158.806 211.053 158.775 211.069C157.411 211.72 156.032 212.326 154.623 212.887C153.259 213.418 151.88 213.918 150.471 214.357C150.455 214.357 150.455 214.372 150.44 214.372C148.485 214.978 146.5 215.509 144.499 215.948C144.477 214.703 144.64 213.462 144.985 212.266L144.999 212.054L146.303 190.959L144.56 181.911L149.561 181.169L177.066 195.975C177.066 195.975 174.035 199.006 161.594 205.461C160.494 206.032 162.109 207.932 162.382 209.235Z" fill="#2F2E41"/>
<path d="M136.104 213.554C134.134 213.736 132.134 213.827 130.133 213.827C128.193 213.827 126.269 213.751 124.344 213.569C124.465 214.766 124.571 215.994 124.678 217.267C126.481 217.418 128.315 217.494 130.133 217.494C132.238 217.5 134.342 217.399 136.437 217.191C139.147 216.937 141.839 216.522 144.499 215.948C144.477 214.703 144.64 213.462 144.985 212.266L144.999 212.054C142.074 212.766 139.101 213.267 136.104 213.554ZM193.372 128.507C190.17 119.308 184.999 110.919 178.222 103.923C171.444 96.9278 163.222 91.495 154.128 88.0037C145.035 84.5124 135.29 83.0466 125.572 83.7085C115.854 84.3704 106.398 87.1441 97.862 91.8362C89.3262 96.5283 81.9167 103.026 76.15 110.876C70.3833 118.726 66.3983 127.739 64.4729 137.287C62.5475 146.835 62.7279 156.688 65.0017 166.16C67.2756 175.631 71.5879 184.492 77.6382 192.126C78.2442 192.883 78.8658 193.641 79.5022 194.368C79.5629 194.429 79.5933 194.475 79.6384 194.52C81.2029 196.324 82.8675 198.039 84.6242 199.657C85.049 200.051 85.4878 200.445 85.9273 200.824C85.9732 200.854 86.0035 200.9 86.0487 200.93C86.9581 201.749 87.8979 202.521 88.8672 203.264C89.0041 203.37 89.1255 203.461 89.2461 203.567C89.5043 203.764 89.7621 203.961 90.0193 204.158C91.5651 205.325 93.1716 206.401 94.8083 207.447C94.8387 207.447 94.8535 207.462 94.8838 207.477C95.3537 207.765 95.8383 208.053 96.3082 208.326C96.7936 208.614 97.2939 208.901 97.8089 209.189C98.1877 209.402 98.5814 209.614 98.9602 209.811L99.5212 210.099C100.824 210.765 102.143 211.402 103.507 211.993C103.78 212.114 104.082 212.235 104.355 212.357L104.416 212.387C105.052 212.645 105.689 212.902 106.341 213.145C108.473 213.96 110.648 214.658 112.857 215.236C113.236 215.342 113.6 215.433 113.979 215.509C117.49 216.39 121.069 216.978 124.678 217.267C126.481 217.418 128.315 217.494 130.133 217.494C132.238 217.5 134.342 217.399 136.437 217.191C139.147 216.937 141.839 216.522 144.499 215.948C146.5 215.509 148.485 214.978 150.44 214.372C150.455 214.372 150.455 214.357 150.471 214.357C151.879 213.918 153.259 213.418 154.622 212.887C156.032 212.326 157.411 211.72 158.775 211.069C158.805 211.053 158.851 211.038 158.881 211.023C158.881 211.008 158.911 211.008 158.927 210.993C159.533 210.705 160.123 210.402 160.73 210.099C160.821 210.053 160.911 210.008 161.018 209.947C161.472 209.72 161.927 209.477 162.382 209.235C162.412 209.22 162.427 209.205 162.457 209.189C163.654 208.523 164.837 207.826 166.004 207.083C166.322 206.886 166.64 206.689 166.958 206.462C167.428 206.174 167.883 205.856 168.322 205.537C168.913 205.128 169.504 204.704 170.08 204.264C170.272 204.141 170.454 204.005 170.626 203.855C172.035 202.794 173.399 201.673 174.702 200.491C184.585 191.685 191.634 180.145 194.958 167.331C198.281 154.518 197.729 141.007 193.372 128.507L193.372 128.507ZM173.566 196.581C171.925 198.124 170.205 199.581 168.413 200.945C168.02 201.248 167.61 201.552 167.201 201.824C166.807 202.127 166.413 202.415 166.004 202.688C165.655 202.931 165.307 203.173 164.943 203.4C164.913 203.431 164.867 203.446 164.837 203.476C164.579 203.658 164.306 203.825 164.049 203.991C163.245 204.492 162.412 204.992 161.594 205.461C161.397 205.568 161.215 205.689 161.018 205.795C160.912 205.855 160.806 205.916 160.684 205.977C160.23 206.234 159.775 206.462 159.321 206.704C159.26 206.75 159.184 206.765 159.124 206.81C159.101 206.814 159.08 206.824 159.063 206.84C158.745 207.007 158.427 207.159 158.109 207.31C157.836 207.447 157.578 207.583 157.305 207.704C156.199 208.235 155.062 208.735 153.926 209.205C152.728 209.689 151.516 210.129 150.289 210.538C149.985 210.644 149.667 210.765 149.349 210.856C147.909 211.311 146.47 211.72 144.999 212.054C142.074 212.766 139.101 213.267 136.104 213.554C134.134 213.736 132.134 213.827 130.134 213.827C128.193 213.827 126.269 213.751 124.344 213.569C120.911 213.255 117.51 212.657 114.176 211.781C114.054 211.75 113.918 211.72 113.797 211.69C111.062 210.977 108.382 210.065 105.78 208.962C105.644 208.902 105.492 208.856 105.371 208.795C105.219 208.735 105.083 208.689 104.961 208.629C104.81 208.568 104.674 208.507 104.537 208.447C103.401 207.947 102.295 207.401 101.188 206.84L100.673 206.568C99.6878 206.052 98.7177 205.522 97.7632 204.931C97.4302 204.749 97.0816 204.537 96.7479 204.325C96.369 204.097 95.9902 203.855 95.6261 203.613C95.5359 203.552 95.4451 203.491 95.3538 203.431C94.5051 202.855 93.6416 202.279 92.8232 201.658C92.2475 201.233 91.6865 200.824 91.1256 200.385C90.7616 200.112 90.3983 199.824 90.0498 199.521C89.8226 199.354 89.5954 199.157 89.3675 198.96C89.0649 198.703 88.7615 198.445 88.4588 198.172C87.989 197.793 87.5494 197.369 87.1247 196.975C85.4183 195.402 83.8042 193.733 82.2905 191.974C81.7755 191.398 81.2901 190.822 80.821 190.216C80.7115 190.097 80.6102 189.97 80.5176 189.837C72.8882 180.206 68.2268 168.563 67.102 156.327C65.9773 144.092 68.4379 131.794 74.1836 120.933C79.9293 110.072 88.7117 101.119 99.4594 95.1642C110.207 89.2098 122.455 86.5121 134.71 87.4002C146.965 88.2884 158.696 92.7241 168.473 100.166C178.25 107.608 185.649 117.734 189.769 129.31C193.889 140.886 194.55 153.41 191.673 165.356C188.796 177.301 182.504 188.151 173.566 196.581L173.566 196.581Z" fill="#3F3D56"/>
</svg>
