<svg width="483" height="318" viewBox="0 0 483 318" fill="none" xmlns="http://www.w3.org/2000/svg">
<path d="M19.5539 288.734L56.793 224.234L94.0321 288.734H19.5539Z" fill="#232230" stroke="#232230" stroke-width="7"/>
<path d="M316.258 217.092L359.481 292.137L272.879 292.047L316.258 217.092Z" fill="#232230" fill-opacity="0.6"/>
<path d="M272.823 142.04L316.047 217.085L229.444 216.995L272.823 142.04Z" fill="#232230" fill-opacity="0.5"/>
<path d="M293.198 13.6873L314.81 51.2098L271.509 51.1648L293.198 13.6873Z" fill="#232230" fill-opacity="0.8"/>
<path d="M143.334 67.234L186.635 142.234H100.033L143.334 67.234Z" fill="#232230" fill-opacity="0.6"/>
<path d="M229.686 217.234L272.987 292.234H186.384L229.686 217.234Z" fill="#232230" fill-opacity="0.8"/>
<path d="M401.378 217.182L444.601 292.227L357.999 292.137L401.378 217.182Z" fill="#232230" fill-opacity="0.7"/>
<path d="M401.533 67.1819L444.757 142.227L358.154 142.137L401.533 67.1819Z" fill="#232230" fill-opacity="0.8"/>
<path d="M314.992 67.1668L358.216 142.212L271.613 142.122L314.992 67.1668Z" fill="#232230" fill-opacity="0.3"/>
<path d="M56.793 117.234L100.094 192.234H13.4917L56.793 117.234Z" fill="#232230" fill-opacity="0.5"/>
<path d="M186.474 142.242L229.775 217.242H143.172L186.474 142.242Z" fill="#232230" fill-opacity="0.5"/>
<path d="M100 292.242L56.6987 217.242H143.301L100 292.242Z" fill="#232230" fill-opacity="0.8"/>
<path d="M357.966 292.129L314.742 217.084L401.345 217.174L357.966 292.129Z" fill="#232230" fill-opacity="0.8"/>
<path d="M357.862 100.052L314.639 25.007L401.241 25.0968L357.862 100.052Z" fill="#232230" fill-opacity="0.7"/>
<path d="M272.667 292.057L229.444 217.012L316.046 217.102L272.667 292.057Z" fill="#232230" fill-opacity="0.8"/>
<path d="M314.837 217.092L271.614 142.047L358.216 142.137L314.837 217.092Z" fill="#232230" fill-opacity="0.7"/>
<path d="M186.474 292.242L143.172 217.242H229.775L186.474 292.242Z" fill="#232230" fill-opacity="0.7"/>
<path d="M143.334 217.234L100.033 142.234H186.635L143.334 217.234Z" fill="#232230" fill-opacity="0.3"/>
<path d="M25 134.691L3.34937 97.191H46.6506L25 134.691Z" fill="#232230" fill-opacity="0.2"/>
</svg>
