<svg width="400" height="250" viewBox="0 0 400 250" fill="none" xmlns="http://www.w3.org/2000/svg">
<rect x="88.8887" y="218.357" width="229.952" height="30.9179" fill="white" fill-opacity="0.5"/>
<circle cx="104" cy="94" r="75" fill="white" fill-opacity="0.6"/>
<circle cx="280.194" cy="121.739" r="96.6184" fill="white" fill-opacity="0.8"/>
<circle cx="322.705" cy="171.981" r="77.2947" fill="white" fill-opacity="0.7"/>
<circle cx="96.6184" cy="152.657" r="96.6184" fill="white" fill-opacity="0.7"/>
<circle cx="96.6179" cy="171.981" r="77.2947" fill="white" fill-opacity="0.8"/>
<circle cx="119.806" cy="171.981" r="77.2947" fill="white" fill-opacity="0.8"/>
<circle cx="129.469" cy="171.981" r="77.2947" fill="white" fill-opacity="0.8"/>
<circle cx="146.86" cy="171.981" r="77.2947" fill="white" fill-opacity="0.8"/>
<circle cx="125.604" cy="171.981" r="77.2947" fill="white" fill-opacity="0.8"/>
<circle cx="106.28" cy="171.981" r="77.2947" fill="white" fill-opacity="0.8"/>
<circle cx="96.6179" cy="171.981" r="77.2947" fill="white" fill-opacity="0.8"/>
<circle cx="88.8884" cy="171.981" r="77.2947" fill="white" fill-opacity="0.7"/>
<circle cx="160.386" cy="171.981" r="77.2947" fill="white" fill-opacity="0.7"/>
<circle opacity="0.7" cx="146.86" cy="129.469" r="77.2947" fill="white" fill-opacity="0.7"/>
<path d="M285.991 77.2947C285.991 119.983 251.385 154.589 208.696 154.589C166.007 154.589 131.401 119.983 131.401 77.2947C131.401 34.606 166.007 0 208.696 0C251.385 0 285.991 34.606 285.991 77.2947Z" fill="white" fill-opacity="0.9"/>
<circle cx="173.913" cy="171.981" r="77.2947" fill="white" fill-opacity="0.7"/>
<circle cx="197.101" cy="171.981" r="77.2947" fill="white" fill-opacity="0.7"/>
<circle cx="224.155" cy="171.981" r="77.2947" fill="white" fill-opacity="0.7"/>
<circle cx="260.87" cy="171.981" r="77.2947" fill="white"/>
<circle cx="280.193" cy="171.981" r="77.2947" fill="white"/>
<circle cx="266.667" cy="171.981" r="77.2947" fill="white"/>
<circle cx="299.517" cy="171.981" r="77.2947" fill="white" fill-opacity="0.8"/>
<circle cx="245.411" cy="171.981" r="77.2947" fill="white" fill-opacity="0.7"/>
</svg>
