<svg width="119" height="241" viewBox="0 0 119 241" fill="none" xmlns="http://www.w3.org/2000/svg">
<path d="M71.6546 39.1164L86.4561 27.3985C85.1285 17.5731 81.4225 8.22039 75.66 0.152344C74.6001 17.7458 56.1648 28.949 49.4145 45.2305C47.3481 50.3247 46.4545 55.8186 46.8 61.3051C47.1454 66.7916 48.7211 72.13 51.4102 76.9247L52.4242 90.2755C60.424 86.4338 67.4958 80.9034 73.1525 74.0654C78.8091 67.2275 82.9161 59.2444 85.1905 50.6664C86.4187 45.8415 87.0344 40.8812 87.0232 35.9024C79.5753 37.9053 71.6546 39.1164 71.6546 39.1164Z" fill="#63FF9B"/>
<path d="M36.7142 156.973C30.8116 158.328 25.6551 159.116 25.6551 159.116L34.7882 151.886C32.7209 145.835 31.5968 139.742 32.9388 133.445C26.0046 139 20.3788 146.013 16.4613 153.987C12.5439 161.961 10.4308 170.7 10.2723 179.583C10.1139 188.467 11.9139 197.275 15.5445 205.384C19.1751 213.493 24.5471 220.703 31.2788 226.501L35.8192 213.905C39.6904 210.002 42.6337 205.278 44.431 200.082C46.2282 194.887 46.8332 189.354 46.2013 183.893C45.0516 174.582 40.3279 165.774 36.7142 156.973Z" fill="#63FF9B"/>
<path d="M30.4645 10.3743C27.3532 13.1068 24.4111 16.0263 21.6547 19.1164L26.3704 8.22941C24.6002 7.5481 22.7029 7.26025 20.8102 7.38587C18.9176 7.5115 17.075 8.04759 15.4103 8.95689C11.5213 11.2368 9.19284 15.6683 8.75254 20.1548C8.46475 24.6813 9.4382 29.1989 11.5646 33.2051C15.2296 40.5604 21.186 46.5252 28.5362 50.2005C32.1374 44.6461 35.5151 38.8052 36.9527 32.3477C38.4137 25.7852 37.615 18.4222 33.4213 13.1674C32.5664 12.1071 31.5717 11.1675 30.4645 10.3743V10.3743Z" fill="#63FF9B"/>
<path d="M103.655 130.116L117.376 119.254C118.509 113.096 118.667 106.799 117.846 100.593C108.626 115.615 87.0874 116.817 73.4656 128.001C69.2438 131.522 65.8684 135.948 63.5896 140.951C61.3108 145.954 60.187 151.405 60.3015 156.901L54.9092 169.157C63.7756 169.535 72.6185 167.986 80.8287 164.617C89.0389 161.249 96.4212 156.14 102.467 149.644C108.184 143.357 112.514 135.937 115.174 127.866C109.082 129.286 103.655 130.116 103.655 130.116Z" fill="#63FF9B"/>
<path d="M28.5947 224.026C25.9747 227.406 23.198 230.66 20.2646 233.786C21.3546 234.116 22.4147 234.437 23.4547 234.757C26.0247 231.966 28.4746 229.076 30.8046 226.086C31.1946 225.586 31.5846 225.077 31.9747 224.557C36.2233 218.966 40.0537 213.07 43.4346 206.916C49.9618 195.083 54.8084 182.398 57.8347 169.226C57.8947 168.996 57.9446 168.777 57.9946 168.547C58.8046 164.927 59.4746 161.266 59.9946 157.596C60.1046 156.856 60.2046 156.107 60.3046 155.367C60.5546 153.337 60.7646 151.306 60.9346 149.276C61.5496 141.877 61.5697 134.439 60.9947 127.036C60.0101 114.376 57.3675 101.899 53.1346 89.9265C52.8346 89.0765 52.5347 88.2265 52.2047 87.3865C52.0247 86.8865 51.8347 86.3865 51.6447 85.8865C46.5499 72.7152 39.5595 60.3582 30.8947 49.2065C30.5747 48.7965 30.2547 48.3965 29.9347 47.9965C29.1747 47.0465 28.4047 46.1065 27.6247 45.1765C27.4967 45.0143 27.3319 44.885 27.1439 44.7993C26.956 44.7137 26.7503 44.674 26.5439 44.6838C26.3376 44.6936 26.1366 44.7525 25.9576 44.8556C25.7786 44.9587 25.6267 45.103 25.5146 45.2765C25.267 45.5536 25.1285 45.9112 25.1248 46.2828C25.1211 46.6544 25.2526 47.0146 25.4947 47.2965C26.1246 48.0465 26.7547 48.8065 27.3547 49.5765C28.1047 50.4865 28.8247 51.4165 29.5247 52.3565C44.9729 72.7285 54.6516 96.8838 57.5447 122.286C59.2787 137.942 58.3352 153.778 54.7547 169.117H54.7448C52.6064 178.358 49.5409 187.36 45.5948 195.986C44.8048 197.706 43.9814 199.41 43.1248 201.096C40.9052 205.486 38.4552 209.756 35.7848 213.887C33.5447 217.377 31.148 220.756 28.5947 224.026Z" fill="#3F3D56"/>
<path d="M2.12164 238.45C15.1887 236.171 28.6056 236.946 41.3238 240.712C43.1791 241.26 43.9716 238.366 42.1213 237.82C28.8791 233.927 14.9155 233.152 1.32409 235.557C-0.57391 235.891 0.230507 238.783 2.12164 238.45V238.45Z" fill="#CCCCCC"/>
</svg>
