<svg width="284" height="284" viewBox="0 0 284 284" fill="none" xmlns="http://www.w3.org/2000/svg">
<rect x="0.263672" y="142.131" width="200" height="200" transform="rotate(-45 0.263672 142.131)" fill="white"/>
<path d="M177.005 101.644L141.427 65.8531L65.4055 142.169L141.384 217.985L177.141 182.512L209.198 214.755L141.015 282.58L0.710938 142.276L141.628 1.68172L209.379 69.6243L177.005 101.644Z" fill="#232230" stroke="#232230"/>
<path d="M256.631 141.948L203.81 88.5711L215.719 75.9947L282.078 142.029L215.76 208.267L203.219 195.766L256.631 141.948Z" fill="#232230" stroke="#232230"/>
<path d="M183.159 69.5252L140.034 26.5284L24.3672 142.002L140.098 257.733L183.095 214.736L175.629 207.592L140.098 243.315L38.9777 142.002L140.034 41.0752L175.95 76.7343L183.159 69.5252Z" fill="white" stroke="#232230"/>
<path d="M242.648 142.131L197.352 187.657L177.808 168.343L142.399 203.293L80.5469 142.131L142.399 80.9691L177.808 114.999L197.352 95.9146L242.648 142.131Z" fill="#232230"/>
<path d="M141.802 179.365L105.045 142.244L141.802 104.896L176.875 139.97L196.635 120.827L218.371 141.575L196.635 163.558L176.875 144.168L141.802 179.365Z" fill="white"/>
<circle cx="141.686" cy="142.131" r="12.5" fill="#232230"/>
</svg>
