<svg width="380" height="380" viewBox="0 0 380 380" fill="none" xmlns="http://www.w3.org/2000/svg">
<path d="M190.131 379.394C294.811 379.394 379.671 294.535 379.671 189.855C379.671 85.1751 294.811 0.31543 190.131 0.31543C85.4515 0.31543 0.591797 85.1751 0.591797 189.855C0.591797 294.535 85.4515 379.394 190.131 379.394Z" fill="#63FF9B"/>
<path opacity="0.2" d="M50.1816 63.2574C9.03007 159.518 53.7048 270.913 149.965 312.064C186.487 327.677 226.99 331.423 265.755 322.774C304.52 314.125 339.589 293.517 366.01 263.86C324.863 360.124 213.47 404.805 117.207 363.657C20.9431 322.51 -23.7375 211.117 17.4095 114.854C25.4703 95.9953 36.5382 78.57 50.1816 63.2574V63.2574Z" fill="black"/>
</svg>
